<svg xmlns="http://www.w3.org/2000/svg" width="167" height="40" fill="none"><g clip-path="url(#a)"><path fill="#F71735" d="M50.64 33.435c-5.139 0-9.308-3.968-9.308-8.859v-8.859h13.187V9.811H41.332V.953h-6.206v23.623c0 8.158 6.943 14.765 15.515 14.765h1.454l.097-5.906h-1.551ZM25.061 12.266c-2.521-1.587-5.566-2.492-8.824-2.455C7.917 9.96 1.15 16.401.994 24.318c-.058 3.1.892 5.998 2.58 8.397 1.144 1.661 2.656 3.082 4.382 4.171l4.538-4.318 12.412-11.812 4.538-4.319a14.876 14.876 0 0 0-4.383-4.171Zm-16.95 16.13a8.502 8.502 0 0 1-.911-3.82c0-4.89 4.17-8.859 9.309-8.859a9.7 9.7 0 0 1 4.014.868L8.111 28.397ZM140.625 24.576c0 4.891-4.169 8.86-9.309 8.86a9.697 9.697 0 0 1-4.014-.868l16.95-16.13c-1.144-1.662-2.657-3.083-4.383-4.172-2.521-1.587-5.566-2.492-8.824-2.455-8.32.13-15.088 6.59-15.243 14.507-.058 3.1.892 5.998 2.579 8.397 1.144 1.661 2.657 3.082 4.383 4.171 2.444 1.55 5.391 2.455 8.552 2.455 2.502 0 4.868-.572 6.963-1.569 5.061-2.436 8.552-7.42 8.552-13.196h-6.206Zm-18.617 0c0-4.89 4.169-8.859 9.308-8.859a9.7 9.7 0 0 1 4.015.868l-12.412 11.812a8.5 8.5 0 0 1-.911-3.82ZM97.03 9.811c-8.534.074-15.36 6.83-15.36 14.95v14.58h6.206V24.724c0-4.854 4.033-8.914 9.134-9.007 5.217-.092 9.483 3.913 9.483 8.86V39.34h6.206V24.576c0-8.194-7.04-14.838-15.67-14.765ZM165.448 33.435c-5.139 0-9.308-3.968-9.308-8.859v-8.859H167V9.811h-10.86V.953h-6.206v23.623c0 8.158 6.943 14.765 15.514 14.765H167v-5.906h-1.552Z"/><path fill="#F71735" d="m77.791 9.811-10.86 23.624-10.86-23.624h-6.827l13.808 29.53h7.758l13.73-29.53h-6.749Z"/><path fill="#fff" d="M32.023 24.576h-6.206c0 2.455-1.047 4.67-2.734 6.257a9.605 9.605 0 0 1-6.574 2.602v5.906c4.285 0 8.164-1.661 10.976-4.319 2.793-2.676 4.538-6.367 4.538-10.446Z"/></g><defs><clipPath id="a"><path fill="#fff" d="M0 0h167v40H0z"/></clipPath></defs></svg>